<?xml version="1.0" encoding="utf-8"?>
<!-- Svg Vector Icons : http://www.onlinewebfonts.com/icon -->
<!DOCTYPE svg PUBLIC "-//W3C//DTD SVG 1.1//EN" "http://www.w3.org/Graphics/SVG/1.1/DTD/svg11.dtd">
<svg version="1.1" xmlns="http://www.w3.org/2000/svg" xmlns:xlink="http://www.w3.org/1999/xlink" x="0px" y="0px" viewBox="0 0 1000 1000" enable-background="new 0 0 1000 1000" xml:space="preserve">
<metadata> Svg Vector Icons : http://www.onlinewebfonts.com/icon </metadata>
<g><path d="M389.8,42c64-37,145.2-42.2,213.5-13.9c61.9,25,112.4,76.6,136.1,139.1c17.3,45.1,20.8,95.4,9.9,142.5c-12.9,57.5-48,109.2-95.6,143.8c68,21,145.2,71.6,184.3,125.3c41.3,56.7,76.8,121.1,89.6,265.1c2.4,16.9,2.5,48.8,2,65.3c2.1,20.5-3.4,42.1-17.5,57.5c-13.7,15.6-34.6,24.3-55.3,23.3c-276.7,0.1-430.6,0.1-707.4,0c-18.9,1-42.9-5.7-56.6-18.9c-13.5-12.4-21.4-30.4-22.1-48.7c-2-47.3-1.5-117,23-202.2c16.1-56.1,48.6-110.5,87.4-152.1c45.8-49,120.2-104.4,186.7-114.7c-38.7-28.2-69.3-67.6-86.1-112.6c-16.7-44.4-20.1-93.6-9.7-139.9C286.7,134.5,330.6,75.4,389.8,42z M492.8,80.8c-64.5,6-123.2,51.3-145.4,112.2c-18.5,48.3-13.9,104.9,12.5,149.4c15,25.9,36.9,47.8,62.8,62.9c44.6,26.5,101.3,31.2,149.8,12.7c51.9-19.1,93.1-64.5,107-118c12.2-44.5,5.7-93.9-17.9-133.6c-17-29.1-42.6-53.1-72.8-68.1C559.3,83.4,525.6,77.6,492.8,80.8z M476.4,505.8c-113.6,8.6-199.3,69.3-248.5,135.7c-35.5,47.9-58.9,100.3-65.3,144.7c-7.5,52.4-8.5,86.4-8.5,101.1c0.7,8-1.1,18,3.7,25.9c5.5,7.2,15.7,6.2,23.8,6.8c261.4,0,366.7,0,628.1,0c6.9-0.4,14.4,0.1,20.8-3.2c6.5-3.6,7.5-11.9,7.5-18.7c-0.6-17.8-1-25.6-1.6-52.5c-2.1-23.8-4.6-45-12.1-84.4c-8.1-42.7-39.6-147-126.2-198.9C637.9,526.4,572.8,504.8,476.4,505.8z"/></g>
</svg>